<svg width="24" height="24" viewBox="0 0 24 24" fill="none" xmlns="http://www.w3.org/2000/svg">
  <path d="M2 2L22 22" stroke="#1C1B1F" stroke-width="2"/>
  <path d="M12 19C9.56667 19 7.35 18.3208 5.35 16.9625C3.35 15.6042 1.9 13.7833 1 11.5C1.9 9.21667 3.35 7.39583 5.35 6.0375C7.35 4.67917 9.56667 4 12 4C14.4333 4 16.65 4.67917 18.65 6.0375C20.65 7.39583 22.1 9.21667 23 11.5C22.1 13.7833 20.65 15.6042 18.65 16.9625C16.65 18.3208 14.4333 19 12 19Z" stroke="#1C1B1F" stroke-width="2"/>
  <path d="M9.5 9.5C9 10 8.7 10.75 8.7 11.5C8.7 12.25 9 13 9.5 13.5C10 14 10.75 14.2 11.5 14.2C12.25 14.2 13 14 13.5 13.5" stroke="#1C1B1F" stroke-width="2"/>
</svg>
